<svg width="74" height="73" viewBox="0 0 74 73" fill="none" xmlns="http://www.w3.org/2000/svg">
<rect x="1" width="72" height="72" fill="#303030"/>
<path d="M53.8607 0.5L37.9114 10V28.5L42.0126 29.5L44.7468 24H51.5823V26.5L45.6582 27.5L44.2911 30C50.2152 33 54.3164 39.5 54.3164 38.5C54.3164 37.7 59.6329 34.1667 62.519 32.5H70.7215V11L53.8607 0.5Z" fill="#A6CF4B"/>
<path d="M20.1392 0.5L3.73413 10.5L4.18988 31.5C5.70887 32 8.54029 31.4775 11.0253 32.5C14.6709 34 21.962 39.5 21.5063 38C21.1417 36.8 27.2784 31.8333 30.1645 30.5L29.7089 26.5L25.1519 25.5V25L26.9746 24.5L29.7088 25L32.443 30L37.9113 29V10L20.1392 0.5Z" fill="#952176"/>
<g filter="url(#filter0_f_28_40)">
<path d="M9.65817 36.5H2.36703C2.36703 36.5 0.0885475 34 2.36703 32C4.64551 30 11.9366 32 11.9366 32C15.2177 33.6 19.3797 36.3333 21.0506 37.5L22.4177 35.5L25.6075 32L30.6202 30L30.1645 26.5L25.6076 25H24.2405L24.6962 24L29.2531 25.5L30.1645 26.5L32.443 29L42.0126 28.5V27.5L44.7468 24H51.1265V26.5L45.6582 27.5L44.2911 30.5L53.8607 37.5L61.1518 32C61.1518 32 70.7215 30.5 72.0886 32C73.4557 33.5 72.0886 35.5 72.0886 35.5H64.3417C59.967 37.5 56.443 40.6667 55.2278 42V58.5L63.4303 65L61.1518 68L52.4936 62L38.8227 72H35.6328L21.0506 62L15.5822 67H11.9366V63.5L19.6835 58V42C17.8607 40.4 12.2404 37.6667 9.65817 36.5Z" fill="#FE8729"/>
</g>
<g filter="url(#filter1_f_28_40)">
<path d="M19.6835 56L55.2278 56" stroke="black" stroke-width="4"/>
</g>
<g filter="url(#filter2_f_28_40)">
<path d="M19.6835 48L55.2278 48" stroke="black" stroke-width="4"/>
</g>
<g filter="url(#filter3_f_28_40)">
<path d="M21.9483 39.6436C21.7885 39.9116 20.7723 40.8946 21.5063 41.0898C22.2403 41.2851 23.4107 40.8728 24.068 40.8831C26.1097 40.9151 28.1475 41.0898 30.1889 41.0898C31.78 41.0898 33.3966 41.1951 34.9857 41.2851C36.7785 41.3866 38.5916 41.3482 40.387 41.3482C41.4555 41.3482 42.5209 41.4516 43.5901 41.4516H46.5943C48.3967 41.4516 51.8849 41.8024 52.1893 41.4009C52.4937 40.9994 52.6283 41.2463 52.4937 41C52.2887 40.6252 53.1502 40.3755 52.9493 40C52.592 39.3319 53.2501 39.2013 52.9493 38.5C52.6835 37.8803 50.1291 36.0514 49.7595 35.4998C49.2194 34.6939 48.295 33.927 47.481 33.4998C46.5519 33.0123 46.1751 31.8793 45.2025 31.4998C44.2728 31.1371 43.4402 30.1745 42.4683 29.9998C41.4299 29.8132 39.4163 29.9984 38.3671 29.9984C37.2764 29.9984 34.4391 29.9114 33.3544 29.9996C32.305 30.0849 33.0323 30.3516 31.9873 30.4981C30.4726 30.7106 28.6925 31.5452 27.4303 32.5003C26.7835 32.9897 26.2392 33.4805 25.6076 34.0003C25.0948 34.4222 24.7097 35.1384 24.2405 35.6152C23.6661 36.1987 22.8401 37.2794 22.4177 38.0003C22.1304 38.4906 22.2388 39.1563 21.9483 39.6436Z" fill="#F9F9F9"/>
<path d="M21.9483 39.6436C21.7885 39.9116 20.7723 40.8946 21.5063 41.0898C22.2403 41.2851 23.4107 40.8728 24.068 40.8831C26.1097 40.9151 28.1475 41.0898 30.1889 41.0898C31.78 41.0898 33.3966 41.1951 34.9857 41.2851C36.7785 41.3866 38.5916 41.3482 40.387 41.3482C41.4555 41.3482 42.5209 41.4516 43.5901 41.4516H46.5943C48.3967 41.4516 51.8849 41.8024 52.1893 41.4009C52.4937 40.9994 52.6283 41.2463 52.4937 41C52.2887 40.6252 53.1502 40.3755 52.9493 40C52.592 39.3319 53.2501 39.2013 52.9493 38.5C52.6835 37.8803 50.1291 36.0514 49.7595 35.4998C49.2194 34.6939 48.295 33.927 47.481 33.4998C46.5519 33.0123 46.1751 31.8793 45.2025 31.4998C44.2728 31.1371 43.4402 30.1745 42.4683 29.9998C41.4299 29.8132 39.4163 29.9984 38.3671 29.9984C37.2764 29.9984 34.4391 29.9114 33.3544 29.9996C32.305 30.0849 33.0323 30.3516 31.9873 30.4981C30.4726 30.7106 28.6925 31.5452 27.4303 32.5003C26.7835 32.9897 26.2392 33.4805 25.6076 34.0003C25.0948 34.4222 24.7097 35.1384 24.2405 35.6152C23.6661 36.1987 22.8401 37.2794 22.4177 38.0003C22.1304 38.4906 22.2388 39.1563 21.9483 39.6436Z" stroke="#FFFAF6" stroke-width="3" stroke-linecap="round"/>
</g>
<path d="M14.1848 64.3853C14.0245 64.5807 13.9308 64.9389 14.1005 65.1251" stroke="white" stroke-width="3" stroke-linecap="round"/>
<path d="M59.6987 64.7549C59.7352 65.1148 60.1893 65.2173 60.4573 65.2173" stroke="white" stroke-width="3" stroke-linecap="round"/>
<path d="M24.5126 24.7373C24.9736 24.7373 25.4189 24.7653 25.8775 24.7918C26.3074 24.8166 26.8047 24.8582 27.2189 24.981C27.8214 25.1597 28.2246 25.225 28.7975 25.5C29.0225 25.608 29.4973 25.8628 29.7089 26C29.9134 26.1326 29.9483 26.1107 30.1123 26.2958C30.4523 26.6795 30.6009 27.1147 30.8283 27.572C30.9437 27.8041 30.9706 28.0738 31.0767 28.316C31.1738 28.5375 31.2835 28.8317 31.3397 29.0664C31.4307 29.4456 31.3331 29.8847 31.483 30.2464C31.5559 30.4226 31.4839 30.627 31.5619 30.798" stroke="white" stroke-width="3" stroke-linecap="round"/>
<path d="M42.9241 30.1371C42.9241 29.8778 43.138 29.5575 43.266 29.3579C43.4996 28.9937 43.6154 28.3715 43.8355 28C44.2141 27.3609 44.7823 26.5977 45.2026 26C45.5869 25.4534 46.3611 25.5195 46.9747 25.4073C47.6485 25.284 48.2797 25.0625 48.9738 25.0577C49.5757 25.0536 50.1627 25 50.7624 25" stroke="white" stroke-width="4" stroke-linecap="round"/>
<path d="M32.7823 36.3356C32.6314 36.5219 33.0177 36.7413 33.1592 36.7491C33.2983 36.7567 32.7458 36.6457 32.6332 36.6457C32.5677 36.6457 32.7644 36.6508 32.8294 36.6429C32.875 36.6373 33.0771 36.5347 33.0074 36.4505C32.9031 36.3246 32.3636 36.3179 32.3636 36.5452C32.3636 36.8532 32.9644 36.9843 33.0807 36.7175C33.2721 36.2784 32.7063 36.1354 32.416 36.1921C32.3494 36.2051 32.2687 36.2819 32.3218 36.3644C32.3676 36.4355 32.6225 36.3889 32.6855 36.3586C32.9182 36.2469 32.6789 36.1289 32.5468 36.1289" stroke="black" stroke-width="3" stroke-linecap="round"/>
<path d="M41.3553 36.6455C41.5669 36.6687 41.7094 36.9174 41.9389 36.9499C42.1716 36.9828 42.3811 36.9399 42.3811 36.6225C42.3811 36.0966 40.7678 35.964 41.0674 36.657C41.1778 36.9123 41.5056 37.1892 41.7766 37.1595C42.0898 37.1251 41.9505 36.5986 41.8159 36.4417C41.7529 36.3682 41.3892 36.0484 41.2716 36.1918C41.1848 36.2977 41.3676 36.5122 41.4495 36.5421" stroke="black" stroke-width="3" stroke-linecap="round"/>
<defs>
<filter id="filter0_f_28_40" x="0.95437" y="23.6" width="72.1418" height="48.8" filterUnits="userSpaceOnUse" color-interpolation-filters="sRGB">
<feFlood flood-opacity="0" result="BackgroundImageFix"/>
<feBlend mode="normal" in="SourceGraphic" in2="BackgroundImageFix" result="shape"/>
<feGaussianBlur stdDeviation="0.2" result="effect1_foregroundBlur_28_40"/>
</filter>
<filter id="filter1_f_28_40" x="18.3835" y="52.7" width="38.1443" height="6.6" filterUnits="userSpaceOnUse" color-interpolation-filters="sRGB">
<feFlood flood-opacity="0" result="BackgroundImageFix"/>
<feBlend mode="normal" in="SourceGraphic" in2="BackgroundImageFix" result="shape"/>
<feGaussianBlur stdDeviation="0.65" result="effect1_foregroundBlur_28_40"/>
</filter>
<filter id="filter2_f_28_40" x="18.2835" y="44.6" width="38.3443" height="6.8" filterUnits="userSpaceOnUse" color-interpolation-filters="sRGB">
<feFlood flood-opacity="0" result="BackgroundImageFix"/>
<feBlend mode="normal" in="SourceGraphic" in2="BackgroundImageFix" result="shape"/>
<feGaussianBlur stdDeviation="0.7" result="effect1_foregroundBlur_28_40"/>
</filter>
<filter id="filter3_f_28_40" x="19.1429" y="27.8165" width="35.9877" height="15.8772" filterUnits="userSpaceOnUse" color-interpolation-filters="sRGB">
<feFlood flood-opacity="0" result="BackgroundImageFix"/>
<feBlend mode="normal" in="SourceGraphic" in2="BackgroundImageFix" result="shape"/>
<feGaussianBlur stdDeviation="0.3" result="effect1_foregroundBlur_28_40"/>
</filter>
</defs>
</svg>
